<?xml version="1.0" standalone="no"?>
<!DOCTYPE svg PUBLIC "-//W3C//DTD SVG 20010904//EN"
 "http://www.w3.org/TR/2001/REC-SVG-20010904/DTD/svg10.dtd">
<svg version="1.0" xmlns="http://www.w3.org/2000/svg"
 width="500.000000pt" height="500.000000pt" viewBox="0 0 500.000000 500.000000"
 preserveAspectRatio="xMidYMid meet">

<g transform="translate(0.000000,500.000000) scale(0.100000,-0.100000)"
fill="#000000" stroke="none">
<path d="M796 4082 l-249 -499 5 -57 c6 -67 43 -128 98 -161 31 -17 57 -21
215 -25 l180 -5 3 -727 2 -728 200 0 200 0 2 728 3 727 420 0 420 0 3 -207 2
-208 200 0 200 0 2 208 3 207 420 0 420 0 3 -727 2 -728 200 0 200 0 2 728 3
727 205 5 c193 5 207 6 243 28 55 35 91 103 92 172 0 58 -4 65 -491 953 l-49
87 -1455 0 -1455 0 -249 -498z"/>
<path d="M2029 2671 c-38 -38 -38 -49 6 -391 45 -354 42 -338 75 -372 l28 -28
362 0 362 0 28 28 c33 34 30 18 75 372 44 342 44 353 6 391 l-29 29 -442 0
-442 0 -29 -29z"/>
<path d="M420 1455 l0 -205 210 0 210 0 0 -415 0 -415 1660 0 1660 0 0 415 0
415 210 0 210 0 0 205 0 205 -2080 0 -2080 0 0 -205z"/>
</g>
</svg>
